/* XPM */
static char *_141f30297bd4fdbf341c58e69b2f3f9IkpFtQPYHhseluNA[] = {
/* columns rows colors chars-per-pixel */
"78 72 228 2 ",
"   c None",
".  c #010101",
"X  c #0B0302",
"o  c #080806",
"O  c #050708",
"+  c #090709",
"@  c #060A0B",
"#  c #0B0B0C",
"$  c #070907",
"%  c #130301",
"&  c #1A0701",
"*  c #140A05",
"=  c #1D0A03",
"-  c #120E0C",
";  c #1A0C09",
":  c #0D100E",
">  c #13120E",
",  c #1D180F",
"<  c #0D0F10",
"1  c #100E11",
"2  c #0E1212",
"3  c #131414",
"4  c #191514",
"5  c #161817",
"6  c #1B1917",
"7  c #141718",
"8  c #1A171A",
"9  c #151A1A",
"0  c #1B1C1C",
"q  c #230C04",
"w  c #2A0E03",
"e  c #250C06",
"r  c #2B1206",
"t  c #25120C",
"y  c #2C140C",
"u  c #291B09",
"i  c #32150D",
"p  c #341A0D",
"a  c #3A1A0E",
"s  c #331507",
"d  c #2A1711",
"f  c #241C14",
"g  c #261D18",
"h  c #341B12",
"j  c #3B1C13",
"k  c #341912",
"l  c #1E201F",
"z  c #3A250E",
"x  c #21221F",
"c  c #2C2317",
"v  c #3C2215",
"b  c #3D2B12",
"n  c #3C2219",
"m  c #352817",
"M  c #3F3118",
"N  c #2B210C",
"B  c #1C1E21",
"V  c #171E20",
"C  c #201F20",
"Z  c #1D2222",
"A  c #1E2829",
"S  c #232423",
"D  c #252926",
"F  c #242B2B",
"G  c #2B2C2B",
"H  c #292726",
"J  c #2C302F",
"K  c #26302F",
"L  c #33332F",
"P  c #3C3427",
"I  c #242E30",
"U  c #282E30",
"Y  c #263133",
"T  c #2C3333",
"R  c #2E3638",
"E  c #2D3939",
"W  c #2D3836",
"Q  c #333433",
"!  c #343936",
"~  c #333C3B",
"^  c #3B3C3B",
"/  c #363837",
"(  c #302C2B",
")  c #421E13",
"_  c #411E0F",
"`  c #41260E",
"'  c #442115",
"]  c #4A2314",
"[  c #442419",
"{  c #4B2519",
"}  c #442C1B",
"|  c #442B14",
" . c #53291B",
".. c #572819",
"X. c #433116",
"o. c #44331C",
"O. c #4B351B",
"+. c #4D3619",
"@. c #53391D",
"#. c #64321F",
"$. c #4C3A24",
"%. c #493824",
"&. c #533D24",
"*. c #583B25",
"=. c #403D36",
"-. c #623F23",
";. c #3E413E",
":. c #37403E",
">. c #5B4323",
",. c #56442B",
"<. c #5D492D",
"1. c #574327",
"2. c #45423A",
"3. c #5C4C34",
"4. c #564C3A",
"5. c #4C402A",
"6. c #654D2C",
"7. c #664827",
"8. c #754D2B",
"9. c #6A522E",
"0. c #67512F",
"q. c #7D522E",
"w. c #644D31",
"e. c #655233",
"r. c #6B5534",
"t. c #6C5A3B",
"y. c #68553B",
"u. c #745B35",
"i. c #735D3B",
"p. c #795C39",
"a. c #6D522D",
"s. c #353F41",
"d. c #393F42",
"f. c #3B4444",
"g. c #3A4648",
"h. c #434443",
"j. c #444B4C",
"k. c #4C4C4C",
"l. c #474845",
"z. c #4C514D",
"x. c #56544C",
"c. c #434E51",
"v. c #455151",
"b. c #4B5454",
"n. c #4B595A",
"m. c #485559",
"M. c #525452",
"N. c #575B5A",
"B. c #514944",
"V. c #665B45",
"C. c #715E42",
"Z. c #7B6542",
"A. c #786649",
"S. c #6A6556",
"D. c #726C5C",
"F. c #7D6E53",
"G. c #7C715A",
"H. c #505E64",
"J. c #605F60",
"K. c #596666",
"L. c #5D6E70",
"P. c #597071",
"I. c #656A68",
"U. c #6E716E",
"Y. c #7B7564",
"T. c #647373",
"R. c #697876",
"E. c #777878",
"W. c #835632",
"Q. c #8C5C36",
"!. c #885A35",
"~. c #925F38",
"^. c #925E37",
"/. c #815230",
"(. c #94623A",
"). c #9B653B",
"_. c #98643B",
"`. c #81653F",
"'. c #A1693E",
"]. c #A0663F",
"[. c #866A47",
"{. c #946A43",
"}. c #8B704C",
"|. c #87704D",
" X c #887657",
".X c #947B54",
"XX c #947A55",
"oX c #91744C",
"OX c #A46941",
"+X c #AB6D43",
"@X c #B87649",
"#X c #AF7349",
"$X c #C27C4D",
"%X c #79807D",
"&X c #A5865A",
"*X c #8A816A",
"=X c #95886F",
"-X c #A58C68",
";X c #B09770",
":X c #9D8159",
">X c #CC8252",
",X c #C78151",
"<X c #D78B5B",
"1X c #E89968",
"2X c #F09F70",
"3X c #F8AC7C",
"4X c #EFA474",
"5X c #D79365",
"6X c #7A8784",
"7X c #6D8486",
"8X c #868583",
"9X c #B2A992",
"0X c #92A7A8",
"qX c #B0B6B0",
"wX c #D5B98C",
"eX c #FCB688",
"rX c #FBBA93",
"tX c #C2BCBD",
"yX c #E4C99A",
"uX c #FFC19A",
"iX c #F9D0A8",
"pX c #CDC6AD",
"aX c #ACC5C4",
"sX c #E3DED4",
"dX c #ECE7CA",
"fX c #FBF9F7",
"gX c #F0EDEA",
"hX c #D8D0C0",
/* pixels */
"                                                                                                                                                            ",
"                                                                                                                                                            ",
"                                                                                                                                                            ",
"                                                                                                                                                            ",
"                                              H G S l S S                             G H H H S S                                                           ",
"                                        Q G S f h c u y f S S 0 0 0         H S C D D S 6 g c N u d 6 Z                                                     ",
"                                      Q S 4 b %.$.$.O.o.s r f S 4 > > 8 0 0 0 S F S # t o.&.1.$.o.z r y 0 5                                                 ",
"                                    Q 0 g 7.p.oX}.p.i.r.<.$.} c S 0 # 3 4 0 S H 6 + M r.[.oX`.p.i.0.1.%.m g 3                                               ",
"                                  ^ S * y.&X[.p.p.9.9.9.9.e.<.X.u G 8 - 0 S ( 0 . d [.:Xu.u.9.7.>.7.9.6.O.p g #                                             ",
"                                  G O &.&X[.>.&.O.z s z +.0.6.1.v g / S # S S O * Z.&Xu.@.O.b N z b @.6.w.%.c H o                                           ",
"                                l.g z wXoX9.>.<.m M o.M ; ` 7.r.,.f Q N.x 4 # . 5.yXp.>.r.C.M M O.m y +.r.w.c ( 6 +                                         ",
"                                ;.$ F.dX!.$.e.wXA.M o.6.$.q z u.t.n t N./ - O . 9XdX7.1.=X;X<.$.,.3.} p 6.Z.%.H ^ o                                         ",
"                                l.# sXsXu.,.-X;XO.y.e.5.<.Z.b r.Z.4.- k.h.3 O . fXhX>.r.wX Xy.V.5.1.|.e.e.|.A.6 l.3                                         ",
"                              Q k.@ fXsX6.$.iX;XC.*XM e.1.-XZ.r..X X, f.h.4 o O sXsX<.&.yX;XG.G.3.t..X|.u..X Xc 2.C O                                       ",
"                              S l.4 pXgX*X& &XyXy.9X4.A.F..Xt.u.:X Xf L / C 1 . 8XfX=Xe }.wXF.t.3.i.|.w.6..XF.> 2.G .                                       ",
"                              x ^ G B.fXqXu b wX-X,.3.<.i.Z.+.9..Xt.$ D H ( 3 . P fX9Xo.} |.&X|.r.e.6.X.6..X3.- Q H .                                       ",
"                              0 G =.H gXpXV.n o..X;X`.9.7.+.M t. X%.- S H / 5 @ $ =X=XZ.o.z >.p.r.+.b 1.Z.A.c : L g .                                       ",
"                              6 8 J G V. X X<.m u &.u.@.` X.e.Z.t.f 7 C G G 5 1 3 ! Y.D.V.1.| ` X.X.,.t.C.5.$ 7 D <                                         ",
"                              0 8 8 Q l.S.D.A.y.1.` b b X.y.Z.y.P o C C G C 4 8 3 5 2.D.Y.F.A.t.5.o.V.S.2.B O g 6 .                                         ",
"                            0 5 3 4 8 H ^ S.Y.Y.F.F.3.%.o.S.x.! 5 S S S 8 4 5 5 5 5 5 ! S.G.Y.S.M u r 4 o @ 0 0 + .                                         ",
"                            0 5 4 4 1 3 g Q V.D.D.Y.4.z r w 5 5 l g l 9 8 7 8 4 5 9 6 0 S 2.S.x.m u c # 6 B 5 + .                                           ",
"                            8 3 7 1 1 - @ # 0 Q S.S.=.N m =.I.l.^ ^ Q T G S S 0 6 6 0 6 4 5 5 - 5 l S S 8 + . . .                                           ",
"                            4 - 1 1 # # + 4 h.;.0 3 3 - o 9 l.^ ^ Q ( D C 6 4 # # # @ + $ . O . $ 3 3 o O . . . .                                           ",
"                            3 # + < + + O 3 0 C 3 @ X O . . . . . . . . . . . . . . . . . . . . . . . . . . . .                                             ",
"                          x 3 # + + + O . 3 . . . . . . . . . . . . . . . . . . . . . . . . . . . . . . . . . .                                             ",
"                          0 2 # + + . O O 3 . . . . . . . . . . . . . . . . . . . . . . . . . . . . . . . . . .                                             ",
"                          0 3 o X X . . O # . . . . . . . . . . . . . . . . . . . . . . . . . . . . . . . . .                                               ",
"                          4 # o O . . . o . . . . . . . . . . . . . . . . . . . . . . . . . . . . . . . . . .                                               ",
"                          5 # # O . . . # . . . . . . . . . . . . . . . . . . . . . . . . . . . . . . . . . .                                               ",
"                          3 # + + . . . # . . . . . . . . . . . . . . . . . O . . . . . . . 3 5 3 > # o $ o #                                               ",
"                        0 3 # O O . . . o . . . . . . 0 h.K.I.I.T.I.U.U.U.U.I.N.h.Q T T ! ^ j.z.h.M.b.2./ Q Q D D D l                                       ",
"                        0 3 # X . . . . O . . . . 9 ^ z.N.z.k.z.M.N.K.U.6X8XE.f.2 3 T ~ ~ W G F A ~ M.h.T G S B S x 4 Z 0                                   ",
"                        9 1 o X . . . $ . . . # D Q ^ Q G H D H D K G Q l.j.h.F 7 g.R.0XqX7Xv.~ F 5 T z.x 3 # 5 S 6 9 0 0 6 3                               ",
"                        4 - # O . . . X . . o G Q Q G G G G G G H D H G S S J D o E n.T.T.j.E T F Z # S o . . # 6 5 6 B 0 0 5 #                             ",
"                        3 # + O . . . O . . S J Q Q ^ ^ d.=.^ ^ ! ^ / =.Q S S 8 @ 9 E K.L.v.T I A @ . . O . . . o : 6 6 3 1 : o $                           ",
"                      C 1 # + O . . . . . 6 D Q ~ ;.k.N.I.N.M.k.l.l.h.l.^ Q Q L 0 9 7 0 G f.g.~ 0 . . . 3 . . . O # 3 3 : < # o o O                         ",
"                      0 - @ @ X . . . . + H D T ^ k.I.E.E.J.M.k.k.;./ ( H G Q ^ J x x 0 5 g.0XL.R # . 0 Z O . . . o # - # 3 # + o $ .                       ",
"                      6 1 # + . . . . . B S H Q h.M.T. X%XE.I.J.h./ G S 8 0 g H ! G D G g.8XaXR.v.~ F B Z # . . . O : 3 > 3 # X . . .                       ",
"                      5 < + X . . . . . B C C F s.h.n.I.U.U.U.I.l.Q D C 4 3 2 3 G ;.T Z W n.m.g.R T F B # 3 . . . X # 3 3 2 # @ O . . .                     ",
"                      3 < o O . . . . O B B C C H / ^ h.z.z.h.l.^ 0 4 5 1 3 1 1 3 G Q F l :.v.j.d./ T S . > O . @ 3 3 3 # X O O . . . .                     ",
"                      3 # + X . . . . O 0 4 6 6 Z H G J J G G ^ Q B 0 B 6 0 9 3 > S ^ T S F g.c.g.d.R A O o # . O 3 5 4 # . . . . . . .                     ",
"                    0 3 # o . . . . . O 3 5 5 9 6 0 C 0 S C F G H S S D A Z Z x l 9 ! ! J 0 W g.c.c.s.F @ . 6 . . $ 3 3 # . . . . . . .                     ",
"                    8 < # O . . . . . . 3 - 2 # 3 4 8 6 8 0 Z S A D S A l l Z Z l 3 G ! U S Z s.c.b.f.F < . 5 @ . . O # o . . . . . . .                     ",
"                    3 - + + . . . . . . < 3 3 # # 3 3 5 3 6 B x S D S S l A S 9 0 5 l ! G D 0 T c.m.g.F 3 . 3 # . . . O o . . . . . . .                     ",
"                    5 - o . . . . . . . # - - # - # 3 3 < 9 Z l Z S S S A D S l Z V 5 F G G S B s.m.j.T 0 . # 3 . . . O # O . . . . . .                     ",
"                    3 @ # . . . . . . + + # $ # # # # # 3 9 0 l Z S D 0 Z S A Z B 9 3 Z W T F g D b.N.d.A O @ 2 $ . . O # # . . . . . .                     ",
"                    3 o X O . . . o + 0 7 + # # O o o # 3 9 0 Z l S F S I I F A 9 Z 9 3 T W J S B d.K.H.U # . @ : . . O $ 2 . . . . . .                     ",
"                  0 # X O . . . . 0 3 5 0 o + X @ X o # 3 5 B B l S F D F F D F Z 9 4 * D ~ T F B I n.R.f.G R S > @ . O # # o . . . .                       ",
"                  6 # o O . . . . 5 # 3 6 # . . X . X < 5 7 0 0 B S F F I I ( C d w w q 7 T W W D S g.7Xv.f.P.K.3 @ . X * # : . . . .                       ",
"                  7 # o . . . . # 3 1 4 3 5 O . . O O - 9 9 0 0 B S F Z H j .._ s _ w w - F T T G B T n.R T R g.Z 2 . X & & * * . .                         ",
"                  5 # @ . . . . @ # 3 3 5 5 1 . . O @ 3 9 3 9 9 Z D Z d ] ..#.) _ _ w w & B W T T F Z T Y T W g.A 2 $ . % e & q .                           ",
"                  3 # X . . . . # 1 5 7 3 3 7 # . . O 3 7 3 9 B Z Z d _ ) ] ....) _ s w q 3 Y Y W W Z Z A T W H.E 2 # . X & & = %                           ",
"                8 3 o O O . . . o 1 3 3 3 3 5 6 # . . 2 5 9 9 B Z 6 t a )  ...#.] ) s s w & F :.~ ~ F 9 D G Y %Xn.2 : . X & & q & .                         ",
"                7 1 # O . . . % O B 0 1 3 3 3 < 9 . . 2 5 5 9 0 7 d y i ) ] ..#...) _ i e & l E ! R T 0 Z I E %XL.@ O O . % & q ; X                         ",
"                5 # @ + . . . q O A 3 3 3 5 3 # 3 # O 3 7 7 9 V t i i i j ) ) #...) _ i e q - G T T W A Z I R I.J.: . . . X & e e % .                       ",
"                5 # o . . . . y . 0 9 0 < 5 3 3 3 2 @ 2 5 7 9 B t d i i j ) ......) ) i y w & B W T Q G Z A T b.g.3 . . . X % q q & .                       ",
"                3 # + . . . . a . 7 E D < 3 3 1 < 2 2 2 7 7 7 0 y s i i i j {  .{ ) j k i w e 1 T ~ ~ W Z Z F :.W : . . . . % = ; q .                       ",
"                1 # O . . . X a X < S 7 # 3 3 2 2 < < 2 3 9 9 5 w i i i i i [ {  .j j k i y y ; I :.W E F 9 A K l $ . . . . X q e e X .                     ",
"              7 1 o O . . . % ) ; O Z $ # 2 3 2 3 < 2 2 2 9 V 8 y y y i d d [  . .n k k y w y e 0 T Y T T l l Z 5 . . . . . X & e = % .                     ",
"              5 1 o . . . . = ) , O 2 . @ 2 3 3 3 3 < 2 < 7 9 f w i i i y d j { [ [ j j k i y e - A W T J A 5 5 : . . . . . . % q q = X                     ",
"              5 @ O . . . . y ' y @ @ @ 2 @ < 3 2 2 2 2 2 9 7 g y i i k d t i k [ [ j [ ) k i q & Z ~ ~ W T 9 @ . . . . . . . X & q & % .                   ",
"              3 o O . . . . i ' d < . V s.@ # 2 3 7 2 2 7 7 9 d s y i t k w t k [ } n j ' p i y q 3 T ~ T T 9 . . . . . . . . . % & & & .                   ",
"              3 O O . . . . p ) p o . 2 ~ 7 @ < 2 2 < < 2 7 V y i y y t i t y k j n n j j j j i e & A Y K J Z @ . . . . . @ O . X & q & X                   ",
"            B # O O . . . X a ) j 3 0 . : 3 O < 2 2 < 2 7 7 9 w i i y i t t t k [ n [ j j j v p r q 3 Y K ! :.J D Z 9 9 l 3 2 . X & = = X .                 ",
"            6 # # O . . . % i ) ) ; 9 2 A 7 O @ 2 2 2 2 2 7 9 t y p y p t t t i j ' ' ' ) j { ) y w - I :.:.g.:.Y I A Z Z 9 7 . X % e e % .                 ",
"            7 < @ . . . . ; p ) j ; 7 9 2 . O $ 2 2 < 2 3 7 5 e y p y y t i t d h h [ { { ) { ) i e & 0 W f.m.P.g.Y I I Y Z 2 O . % e e ; .                 ",
"            3 < @ O . . . y a ' j ; @ < . . . O 0 7 < 2 2 9 3 q q p s r i i y d v j [ [ { {  .) k w w ; A f.f.P.P.g.I I I V 2 < . % q w ' @.-.*.}           ",
"            3 @ o . . . . y a ) k t . < < . . @ A 9 2 2 7 7 ; q c O.@.-.>.&.t y k j n [ { { ) [ j y q & 9 E Y g.P.H.Y I I A < < . &.7.8.!.+X@XOXq.          ",
"            3 @ O . . . . i a ) y y . # B < . . @ 2 2 2 2 N M o.-.7./.W._._.W.>.o.+.@.j { [ { ) a i e e > Y J T K.7Xn.s.I I *.!.'.~.~.'.#X$X$X$XOXW.q.      ",
"          0 1 + O . . . X y j j p y & . 3 7 . . @ 2 : 2 > M 6.8.8././.^.'.@X,X>X@X#X#XQ.-.[ { [ _ ' r w * F W F d.c.T.K.{.#X#X'.Q.~.@X>X$X$X$X@X).(.^._.{.{.",
"          9 < + O . . . & i j j p r w . . < . . O 2 : 2 N 7.(.W.W.].'.$X<X5X2X3XrXrXrXeX1X5X<X@X+X$X/.q.*.[ } S R r.{.OX{.].(.Q.^.@X$X>X$X$X@X'.).(.Q.(.^.W.",
"          3 < @ . . . . ; y i j y t e % . . O . . < @ } +.Q.+X^.'.$X<X1X<X1X3XrXuXuXrXeX3X4X2X2X1X<X$X@XOX(.Q.Q.^.^.~.^.W.W.q.W.+X$X>X>X@X'.'.]._.Q.W.W.q.8."
};
