/* XPM */
static char *_3415b75d891444abcc924df3cdabd7cu1Owho9jimaFURPz[] = {
/* columns rows colors chars-per-pixel */
"80 75 204 2 ",
"   c None",
".  c #010101",
"X  c #0B0302",
"o  c #070906",
"O  c #080806",
"+  c #050708",
"@  c #090709",
"#  c #060A0B",
"$  c #0B0B0C",
"%  c #130301",
"&  c #1A0701",
"*  c #140905",
"=  c #1D0A03",
"-  c #120E0D",
";  c #1A0C09",
":  c #0D100E",
">  c #12110D",
",  c #1D140E",
"<  c #0D0F10",
"1  c #100E11",
"2  c #0E1212",
"3  c #131414",
"4  c #181616",
"5  c #161816",
"6  c #1A1917",
"7  c #141718",
"8  c #1A171A",
"9  c #151A1A",
"0  c #1B1C1C",
"q  c #230C04",
"w  c #2A0E03",
"e  c #220E09",
"r  c #2A0F08",
"t  c #230700",
"y  c #2C1106",
"u  c #25120C",
"i  c #2C140C",
"p  c #32150D",
"a  c #38160B",
"s  c #34190E",
"d  c #3A1A0E",
"f  c #311407",
"g  c #2A1711",
"h  c #241C17",
"j  c #311710",
"k  c #341B12",
"l  c #3B1C13",
"z  c #3C1E18",
"x  c #1E201F",
"c  c #22221F",
"v  c #2E2516",
"b  c #3D2116",
"n  c #3D2019",
"m  c #3D2E19",
"M  c #2A210D",
"N  c #171E20",
"B  c #1C1E21",
"V  c #201F20",
"C  c #1D2222",
"Z  c #1F2929",
"A  c #1D2728",
"S  c #262626",
"D  c #222423",
"F  c #262926",
"G  c #252926",
"H  c #2A2A27",
"J  c #232728",
"K  c #242B2B",
"L  c #292A29",
"P  c #2D2D2D",
"I  c #2A2C2B",
"U  c #2B2625",
"Y  c #322E2F",
"T  c #2C302F",
"R  c #26302F",
"E  c #32322F",
"W  c #242E30",
"Q  c #282E30",
"!  c #263133",
"~  c #2C3333",
"^  c #2E3638",
"/  c #2D3939",
"(  c #2D3836",
")  c #353535",
"_  c #323433",
"`  c #343A36",
"'  c #323739",
"]  c #333C3B",
"[  c #3B3C3B",
"{  c #3A3837",
"}  c #411E0F",
"|  c #421E13",
" . c #442115",
".. c #4A2314",
"X. c #442419",
"o. c #4B2519",
"O. c #442B19",
"+. c #4A2917",
"@. c #52261B",
"#. c #53291B",
"$. c #5C2B1A",
"%. c #542615",
"&. c #4C351A",
"*. c #473319",
"=. c #52361C",
"-. c #43220F",
";. c #64321F",
":. c #5B3B23",
">. c #553F2F",
",. c #4E3724",
"<. c #623F23",
"1. c #3E413E",
"2. c #37403E",
"3. c #5C4122",
"4. c #41413E",
"5. c #6A4828",
"6. c #754C2A",
"7. c #784D2E",
"8. c #7D522E",
"9. c #745237",
"0. c #353F41",
"q. c #393F42",
"w. c #374244",
"e. c #3B4444",
"r. c #3D4A4B",
"t. c #39474A",
"y. c #434443",
"u. c #494745",
"i. c #434944",
"p. c #494947",
"a. c #444B4C",
"s. c #4C4C4C",
"d. c #484749",
"f. c #4C514D",
"g. c #51524F",
"h. c #434E51",
"j. c #455151",
"k. c #4B5454",
"l. c #4B595A",
"z. c #485559",
"x. c #525452",
"c. c #545C5D",
"v. c #5A5C5A",
"b. c #585859",
"n. c #505E64",
"m. c #605F60",
"M. c #5E6462",
"N. c #576768",
"B. c #5D6E70",
"V. c #597071",
"C. c #636564",
"Z. c #656D6C",
"A. c #6A6C6A",
"S. c #6E716E",
"D. c #647373",
"F. c #6A7473",
"G. c #697B79",
"H. c #737474",
"J. c #7B7B7D",
"K. c #814E30",
"L. c #835632",
"P. c #865A33",
"I. c #8C5C36",
"U. c #8A5B38",
"Y. c #925F38",
"T. c #925E37",
"R. c #80562F",
"E. c #94623A",
"W. c #9B653B",
"Q. c #98643B",
"!. c #A1693E",
"~. c #A0663F",
"^. c #946A43",
"/. c #8F6649",
"(. c #A46941",
"). c #AB6D43",
"_. c #B06F44",
"`. c #B37347",
"'. c #B67648",
"]. c #BA774A",
"[. c #BD794B",
"{. c #AF754C",
"}. c #C27C4D",
"|. c #79807D",
" X c #C78151",
".X c #CC8252",
"XX c #D78B5B",
"oX c #D79365",
"OX c #EA9D6C",
"+X c #E69564",
"@X c #F09F70",
"#X c #F8AC7C",
"$X c #EFA474",
"%X c #6D8486",
"&X c #7A8784",
"*X c #838885",
"=X c #92A7A8",
"-X c #A5B8B9",
";X c #FCB688",
":X c #FBBA91",
">X c #FBBC99",
",X c #FFC19A",
"<X c #FFC3A1",
"1X c #ACC5C4",
/* pixels */
"                                                                                                                                                                ",
"                                                                                                                                                                ",
"                                                                                                                                                                ",
"                                                                                                                                                                ",
"                                                                                                                                                                ",
"                                                                                                                                                                ",
"                                                                                                                                                                ",
"                                                H H D x G D                             P L G S D C                                                             ",
"                                          _ L D 5 4 4 4 0 h D D x 6 0         S D V I F 0 6 4 3 4 6 9 6 C                                                       ",
"                                        ) S 3 + . . . . . . 4 D D 6 > 3 8 8 c x D S D $ . . . . . . $ 4 0 6 6                                                   ",
"                                      E 0 + . . . . . . . . . . 4 J 6 $ 3 3 8 D S 6 . . . . . . . . . . 1 0 V 3                                                 ",
"                                    { D . . . . . . . . . . . . . 6 Y 9 > 8 S Y 0 . . . . . . . . . . . . 1 D c $                                               ",
"                                    I + . . . . . . . . . . . . . + D { D $ D D . . . . . . . . . . . . . . 3 Y D @                                             ",
"                                  u.V . . . . . . . . . . . . . . . $ ` v.c 7 $ . . . . . . . . . . . . . . X x _ 6 +                                           ",
"                                  1.O . . . . . . . . . . . . . . . . 6 b.) - . . . . . . . . . . . . . . . . $ { [ $                                           ",
"                                  p.@ . . . . . . . . . . . . . . . X > g.u.- X . . . . . . . . . . . . . . X O v u.3                                           ",
"                                ) s.@ . . . . . . . . . . . . . . . . > y.y.7 # . . . . . . . . . . . . . . . $ 3 u.D .                                         ",
"                                D u.6 . . . . . . . . . . . . . . . . $ Y ' h < . . . . . . . . . . . . . . . @ : 4.L .                                         ",
"                                x { P . . . . . . . . . . . . . . . . $ J I P 3 . . . . . . . . . . . . . . . O $ ) U .                                         ",
"                                0 L [ 1 . . . . . . . . . . . . . . . - V L { 4 + . . . . . . . . . . . . . . @ : E c .                                         ",
"                                8 8 Y L O . . . . . . . . . . . . . . 5 0 P P 4 3 $ . . . . . . . . . . . . . . 4 I -                                           ",
"                                8 8 8 _ P o . . . . . . . . . . . . + B D P 0 4 6 3 3 . . . . . . . . . . . . o 0 4 .                                           ",
"                              x 4 3 4 4 L D $ + . . . . . . . . . + c S D 9 4 4 6 5 3 3 $ . . . . . . . . . @ 0 h @ .                                           ",
"                              0 3 4 4 1 3 B h 6 - + . . . . . 3 5 x h 0 6 4 7 6 7 7 6 6 0 0 $ O . . . . @ 6 D 4 + .                                             ",
"                              6 1 3 1 1 3 @ $ 6 4 8 4 6 6 9 Y C.p.1.{ ` _ P D D 6 8 0 8 6 6 4 4 $ 6 8 D D 6 @ . . .                                             ",
"                              5 1 1 1 - @ + 4 y.q.V 3 3 - $ 6 u.[ { ) P S V 4 4 $ $ $ $ $ o . + . @ 3 3 @ + . . . .                                             ",
"                              3 $ $ < $ + X 4 6 0 3 O O + . . . . . . . . . . . . . . . . . . . . . . . . . . . .                                               ",
"                            0 2 - @ @ O + . 3 . . . . . . . . . . . . . . . . . . . . . . . . . . . . . . . . . .                                               ",
"                            x 3 @ @ O X . X 4 . . . . . . . . . . . . . . . . . . . . . . . . . . . . . . . . . .                                               ",
"                            0 2 @ O + . . + @ . . . . . . . . . . . . . . . . . . . . . . . . . . . . . . . . .                                                 ",
"                            4 $ O . X . . @ + . . . . . . . . . . . . . . . . . . . . . . . . . . . . . . . . .                                                 ",
"                            4 $ @ @ . . . $ . . . . . . . . . . . . . . . . . . . . . . . . . . . . . . . . . .                                                 ",
"                            4 $ @ O . . . $ . . . . . . . . . . . . . . . . . o + . . . . . . 3 5 2 3 : @ $ o $                                                 ",
"                          0 3 @ + + . . . @ . . . . . . 5 y.M.C.Z.D.Z.S.F.H.A.Z.x.y._ T ~ ` [ i.f.i.k.s.4.` ` ~ L G K 0                                         ",
"                          8 3 $ O . . . . + . . . . 5 1.x.v.f.f.f.x.v.M.S.|.*X|.e.3 7 ~ ] ] ~ I K D [ x.i.T I L D D 0 6 D 0                                     ",
"                          0 - $ @ . . . + . . . $ G _ [ ( I G G D S I T _ i.f.e.I 3 t.D.=X-X%Xj.] K 5 ~ g.x 3 $ 5 c 6 5 0 0 9 3                                 ",
"                          4 - $ + X . . O . . $ L ~ Y P P I P P P F S F H G D T D @ ' l.D.F.j.] ! K C < D o . . : 0 5 0 0 h 0 4 o                               ",
"                          3 $ @ . . . . + . . D T _ ` [ [ [ [ y.4.` { ) 4._ S D 6 o 5 ] N.B.j.~ K C $ . . X . . . @ : 4 8 3 : : $ o                             ",
"                        V 3 - @ . . . . . . 0 P ~ [ 1.k.v.m.v.x.s.u.u.y.p.{ _ _ T 0 0 5 5 K t.j.] 0 . . . 4 . . . + $ 3 3 2 $ $ @ $ o                           ",
"                        8 1 # $ X . . . . O S F _ [ s.C.H.H.C.x.s.p.y.) P U P _ [ ~ x x 0 3 r.=XD.^ $ . 9 D . . . . @ - 1 $ 3 $ @ @ o .                         ",
"                        6 < @ @ . . . . . 0 S F Y y.x.A.J.J.H.A.v.y._ P D 8 0 h L ' I G R e.*X1XG.j.] K C 0 < . . . + $ > > : $ @ . . .                         ",
"                        4 < O @ . . . . . C D D K ] y.k.C.H.S.S.C.u._ L x 4 3 3 3 L 1.~ C ~ l.l.e.' ~ K C 2 3 . . . + $ 3 3 > $ @ . . . .                       ",
"                        3 $ @ + . . . . + 0 6 B D I ) [ u.s.f.a.a.[ 0 4 3 > > 3 - 3 T _ G 0 ] j.h.q._ ! C . 2 X . o 3 3 4 $ @ + + . . . .                       ",
"                        3 $ @ O . . . . @ 0 6 8 6 B L P P ~ P P { _ 0 0 x 0 0 6 4 > D ' _ G K r.a.r.w./ K . @ 1 . + 3 4 4 $ . . . . . . .                       ",
"                      0 3 $ @ . . . . . + 3 3 5 5 5 0 B 0 V h J T J D G G A C A c x 6 ' ` ~ x ! r.h.h.0.K # . 5 . . $ 4 3 $ . . . . . . .                       ",
"                      6 - $ O . . . . . . 3 1 > $ 4 6 6 0 0 B C S J G A C x x C x x 3 I ] K x C 0.h.k.w.K < . 5 + . . O $ @ . . . . . . .                       ",
"                      4 - @ + . . . . . . 3 3 $ $ - 3 3 4 4 5 C x D G D G x A C 0 N 7 0 ` ~ G 0 Q h.z.e.K 7 . 3 : . . . + @ . . . . . . .                       ",
"                      4 $ @ . . . . . . . $ - - 1 $ $ < 3 < 5 C x D D S G C Z D 0 C B 7 I I I D V q.k.a.~ 0 . $ 3 . . . o $ . . . . . . .                       ",
"                      3 $ O X . . . . . + @ @ $ $ $ - $ $ 2 5 0 x C D G 0 C G A C N 0 2 D ' ~ I V K h.c.2.K . + 2 # . . o $ $ . . . . . .                       ",
"                      3 @ + . . . . @ $ x 7 @ $ O O O @ $ 3 0 C x C G J C W K K A 9 C 0 3 ~ ~ P D B q.N.c.~ $ . $ : . . + + : . . . . . .                       ",
"                    0 $ O + . . . . 0 3 3 0 o O O O X O $ 3 5 N 0 C D K D K K K K C 6 , * Z ] ~ J h ! n.D.w.K / D : + . + # : $ . . . .                         ",
"                    0 $ O + . . . . 4 $ 3 6 : . X O . + < 5 7 0 B 0 J K Z ! K L S g r w t 7 ^ ~ / S C t.%Xj.w.B.N.3 $ . . * $ : . . . .                         ",
"                    4 : O . . . . @ > 3 4 3 3 . . . . + - 7 5 B 0 C D Z C U n @.} a a y w * K ~ ~ I x ( l.~ ~ ] r.x 3 . X & & & O . .                           ",
"                    4 $ O . . . . $ $ 2 3 4 4 3 . . + $ 2 4 7 5 0 C K C g ..%.$.l } } f w = C ~ ~ ~ I C ~ ! ! ~ h.A 3 O . % q = q .                             ",
"                    3 $ @ . . . . $ 3 3 7 4 3 5 $ . . # 3 4 7 9 0 C C 6 d ....$.%...} f w q 3 ~ ! ' ( C C K ! ~ N.~ 2 $ . X & & = %                             ",
"                  9 3 @ O . . . X @ 2 3 3 3 3 3 9 $ . . 2 5 5 5 C C 6 i d  .%.$.;...} f y q * R ] ] ] I 9 Z T ~ G.z.2 : X X % t t = .                           ",
"                  6 1 $ + . . . * . D 0 2 3 3 3 : 7 + . 2 7 9 7 0 7 i i p | ..%.;.#...} p w & 0 ' ^ ` ~ 9 C K / |.B.: + o . % t = = X                           ",
"                  5 $ $ X . . . = + D 3 3 3 3 3 2 3 $ + 7 7 7 9 C , p s p l | ..$.#.| l k q t - K ~ ~ ( C C W ( Z.M.2 . . . X & q q % .                         ",
"                  4 # @ . . . . i . 9 0 9 3 4 3 3 3 2 + 2 7 7 N 9 u i s p l ..o.$.@.| | a r r & C / ! ` ~ C Z ( f.e.3 . . . X % q q = .                         ",
"                  3 < @ + . . . s . 9 / J < 3 2 3 $ 2 2 2 2 7 9 0 i i s j k k @.#.@.| d d i r w 2 ~ ] ' ~ B C Z 2.( : . . . . % = q = .                         ",
"                  $ $ + . . . X d X : C 7 $ 3 3 2 2 : : 2 7 9 9 4 r f p p p k  .o.#.z k s p r f ; W 2.( ] I 9 A T C + . . . . X t q q X .                       ",
"                5 3 o + . . . % | ; # x @ $ < 2 2 2 3 : 2 2 9 9 8 f i i i g g | #.#.z k p i r i q 0 ~ ! ( ~ x x C 7 . . . . . X & q = % .                       ",
"                5 < @ . . . . ;  .u + 7 . $ < 3 7 3 3 < 2 2 9 9 g i i p p p i l X.+. .z z k p i r - A ( ~ T A 7 5 : . . . . . . % = q = X                       ",
"                4 $ + . . . . i  .u # # # 2 + 2 3 3 2 2 2 2 9 7 g y p p j g e j d X.X.z  .| k p e * C ] ] / ! 7 # . . . . . . . X & = & % .                     ",
"                3 @ . . . . . s | p < . C w.+ $ 2 2 3 2 2 7 7 9 s i i p i i u i j n O.X.z | s p i q 3 ~ ] ( ~ x . . . . . . . . . % & = & .                     ",
"                3 + + . . . . s | k @ . 2 / 7 # 2 2 2 $ 2 7 7 9 i s i i u i u i j n z n l z z d p r * C ! T T C # . . . . . # o . X & = = X                     ",
"              0 < @ + . . . X k | l 3 6 . : 2 + $ 2 2 : 2 7 2 N r p j i i i u u k n  .n z z k n p y t 3 R R / 2.~ G C 9 0 5 7 : . % & = = X .                   ",
"              0 # @ + . . . * p | | > 9 2 Z 2 + # 3 2 2 2 2 7 9 i i s i k i i u g l  .X.| | z +.| i r * R 2.2.e.] I J A C A 9 7 . X & t r % .                   ",
"              7 < @ . . . . e s | l ; 3 9 2 . + # 2 2 : 2 7 7 9 e i s i i i i i i k l X.o.+.| @.b p q = x 2.w.z.V.r.! ! Z ! C 7 + . & q q ; X                   ",
"              4 < # + . . . r d ..k u # < . . . + 9 9 2 2 2 9 2 t e p i i p g i i v b  . .o.o.@. .d y q * Z 2.w.V.D.r.! ! W C 2 $ . % q q X.:.:.:.O.            ",
"              3 < @ . . . . i d | s q + < < . . + C 9 2 2 7 9 2 q v &.=.:.3.=.i i j z l o.o.o.|  .l y q & 9 / ( t.V.l.! W Z A < : . ,.5.7.L.).'.(.7.            ",
"              3 # + . . . . f k | i f . # N < . + # : : 2 2 h m &.3.5.8.P.Q.Q.L.:.*.&.=.z O.X.|  .d a q = 2 ! R ! V.%Xz.0.W K >.U.!.E.Y.(.`.}.}.].(.P.8.        ",
"            0 < # . . . . X p d l i i % . 2 5 . . # 2 < 2 > *.5.6.6.R.R.Y.).[..X.X[.{.'.I.5.X.o. . .-.y y & J ` K w.h.D.N./.`._.W.P.E.)..X.X[.[.'.!.E.T.Q.^.^.  ",
"            0 < # + . . . * p d l s y r . + $ + . + 2 : 2 M 5.I.P.P.Q.`.}..XXXOX#X:X>X:X;X+XoXXX[._.[.K.9.:.O.+.D ^ 9.^.~.W.!.T.I.E.'..X X X].'.!.W.E.I.T.I.L.6.",
"            3 $ # . . . . ; p k d i u r * . . + . . $ < *.&.U.(.T.!.].XXXX+XOX#X:X<X>X:X;X#X$XOX@XOXXX[.].(.E.U.I.U.U.^.T.L.P.7.P._.}..X.X'.).!.~.Q.I.P.L.R.6.5."
};
